<?xml version="1.0" encoding="UTF-8"?>
<svg xmlns="http://www.w3.org/2000/svg" viewBox="0 0 128 128" width="512" height="512">
  <rect width="100%" height="100%" fill="#18181b"/>
  <image href="../src/assets/logo.png" x="4" y="4" width="120" height="120" opacity="0.35"/>
  <path d="M 119 5.3 L 123 5.3 L 124 6.8 L 124 101.3 L 123 102.8 L 103.5 122.8 L 100.5 122.8 L 100.5 99.3 L 99.5 98.8 L 76 122.8 L 73.5 122.8 L 73.5 68.8 L 73 68.3 L 66 74.3 L 64.5 74.8 L 55.5 67.3 L 55 67.8 L 55 122.8 L 20 122.8 L 4 105.3 L 4 10.8 L 4.5 9.8 L 5.5 8.8 L 10 7.3 L 13 7.3 L 65.5 36.8 L 104.5 13.3 L 118.5 5.8 Z" fill="none" stroke="#ff8c28" stroke-width="1.5" stroke-linejoin="round"/>
</svg>